<svg width="32" height="33" viewBox="0 0 32 33" fill="none" xmlns="http://www.w3.org/2000/svg">
<g clip-path="url(#clip0_1_361)">
<path d="M28.9999 16.6651C28.9959 19.8423 27.8301 22.9084 25.7223 25.2859C23.6145 27.6633 20.7101 29.1879 17.5562 29.5726C17.486 29.5805 17.4149 29.5735 17.3475 29.552C17.2802 29.5304 17.2182 29.4948 17.1657 29.4476C17.1131 29.4004 17.0712 29.3425 17.0426 29.2779C17.014 29.2132 16.9995 29.1432 16.9999 29.0726V19.6651H19.9999C20.137 19.6654 20.2727 19.6375 20.3986 19.5831C20.5244 19.5288 20.6378 19.4491 20.7315 19.3492C20.8253 19.2492 20.8975 19.131 20.9437 19.0019C20.9899 18.8728 21.009 18.7356 20.9999 18.5988C20.9779 18.3417 20.8592 18.1024 20.6679 17.9292C20.4766 17.756 20.2268 17.6616 19.9687 17.6651H16.9999V14.6651C16.9999 14.1346 17.2107 13.6259 17.5857 13.2509C17.9608 12.8758 18.4695 12.6651 18.9999 12.6651H20.9999C21.137 12.6654 21.2727 12.6375 21.3986 12.5831C21.5244 12.5288 21.6378 12.4491 21.7315 12.3492C21.8253 12.2492 21.8975 12.131 21.9437 12.0019C21.9899 11.8728 22.009 11.7356 21.9999 11.5988C21.9778 11.3412 21.8588 11.1016 21.667 10.9283C21.4751 10.755 21.2247 10.661 20.9662 10.6651H18.9999C17.9391 10.6651 16.9217 11.0865 16.1715 11.8366C15.4214 12.5868 14.9999 13.6042 14.9999 14.6651V17.6651H11.9999C11.8629 17.6648 11.7272 17.6927 11.6013 17.747C11.4755 17.8013 11.3621 17.881 11.2683 17.981C11.1746 18.081 11.1023 18.1992 11.0562 18.3283C11.01 18.4573 10.9909 18.5945 10.9999 18.7313C11.0221 18.9889 11.141 19.2285 11.3329 19.4018C11.5248 19.5751 11.7752 19.6692 12.0337 19.6651H14.9999V29.0751C15.0004 29.1456 14.9859 29.2155 14.9574 29.28C14.9289 29.3446 14.887 29.4024 14.8346 29.4496C14.7822 29.4968 14.7204 29.5324 14.6532 29.554C14.5861 29.5757 14.5151 29.5828 14.4449 29.5751C11.2066 29.1807 8.2344 27.5849 6.11654 25.1037C3.99867 22.6224 2.88955 19.4364 3.00869 16.1763C3.25869 9.42632 8.72619 3.93882 15.4812 3.67632C17.2301 3.60858 18.9746 3.89426 20.6105 4.51627C22.2464 5.13829 23.7401 6.08387 25.0021 7.29644C26.2642 8.50901 27.2687 9.96367 27.9556 11.5734C28.6425 13.1832 28.9977 14.9149 28.9999 16.6651Z" fill="white"/>
</g>
<defs>
<clipPath id="clip0_1_361">
<rect width="32" height="32" fill="white" transform="translate(0 0.665039)"/>
</clipPath>
</defs>
</svg>
