<svg width="32" height="33" viewBox="0 0 32 33" fill="none" xmlns="http://www.w3.org/2000/svg">
<g clip-path="url(#clip0_1_364)">
<path d="M20 16.665C20 17.4562 19.7654 18.2295 19.3259 18.8873C18.8864 19.5451 18.2616 20.0578 17.5307 20.3606C16.7998 20.6633 15.9956 20.7425 15.2196 20.5882C14.4437 20.4338 13.731 20.0529 13.1716 19.4935C12.6122 18.9341 12.2312 18.2213 12.0769 17.4454C11.9225 16.6695 12.0017 15.8652 12.3045 15.1343C12.6072 14.4034 13.1199 13.7787 13.7777 13.3392C14.4355 12.8996 15.2089 12.665 16 12.665C17.0609 12.665 18.0783 13.0865 18.8284 13.8366C19.5786 14.5868 20 15.6042 20 16.665ZM29 10.665V22.665C28.998 24.5209 28.2599 26.3003 26.9476 27.6126C25.6352 28.9249 23.8559 29.6631 22 29.665H10C8.14409 29.6631 6.36477 28.9249 5.05245 27.6126C3.74012 26.3003 3.00199 24.5209 3 22.665V10.665C3.00199 8.80913 3.74012 7.02981 5.05245 5.71748C6.36477 4.40516 8.14409 3.66702 10 3.66504H22C23.8559 3.66702 25.6352 4.40516 26.9476 5.71748C28.2599 7.02981 28.998 8.80913 29 10.665ZM22 16.665C22 15.4784 21.6481 14.3183 20.9888 13.3316C20.3295 12.3449 19.3925 11.5759 18.2961 11.1218C17.1997 10.6676 15.9933 10.5488 14.8295 10.7803C13.6656 11.0118 12.5965 11.5833 11.7574 12.4224C10.9182 13.2615 10.3468 14.3306 10.1153 15.4945C9.88378 16.6584 10.0026 17.8648 10.4567 18.9611C10.9108 20.0575 11.6799 20.9946 12.6666 21.6539C13.6533 22.3131 14.8133 22.665 16 22.665C17.5908 22.6634 19.116 22.0307 20.2408 20.9059C21.3657 19.781 21.9983 18.2558 22 16.665ZM25 9.16504C25 8.86837 24.912 8.57836 24.7472 8.33168C24.5824 8.08501 24.3481 7.89275 24.074 7.77922C23.7999 7.66569 23.4983 7.63598 23.2074 7.69386C22.9164 7.75174 22.6491 7.8946 22.4393 8.10438C22.2296 8.31416 22.0867 8.58143 22.0288 8.8724C21.9709 9.16337 22.0007 9.46497 22.1142 9.73906C22.2277 10.0132 22.42 10.2474 22.6666 10.4122C22.9133 10.5771 23.2033 10.665 23.5 10.665C23.8978 10.665 24.2794 10.507 24.5607 10.2257C24.842 9.9444 25 9.56286 25 9.16504Z" fill="white"/>
</g>
<defs>
<clipPath id="clip0_1_364">
<rect width="32" height="32" fill="white" transform="translate(0 0.665039)"/>
</clipPath>
</defs>
</svg>
