<svg width="32" height="33" viewBox="0 0 32 33" fill="none" xmlns="http://www.w3.org/2000/svg">
<g clip-path="url(#clip0_1_367)">
<path d="M26.875 28.1463C26.7889 28.3031 26.6623 28.434 26.5084 28.5252C26.3545 28.6165 26.1789 28.6648 26 28.665H20C19.8317 28.665 19.6661 28.6225 19.5186 28.5414C19.3711 28.4603 19.2465 28.3433 19.1562 28.2013L14.095 20.2475L6.74 28.3375C6.5607 28.5301 6.31272 28.6443 6.04981 28.6553C5.7869 28.6663 5.53025 28.5732 5.33551 28.3962C5.14078 28.2192 5.02364 27.9726 5.00951 27.7099C4.99537 27.4471 5.08537 27.1894 5.26 26.9925L12.9812 18.4925L5.15625 6.20254C5.05988 6.05134 5.00593 5.87702 5.00005 5.69782C4.99417 5.51861 5.03658 5.34113 5.12284 5.18394C5.2091 5.02676 5.33604 4.89565 5.49036 4.80436C5.64468 4.71307 5.8207 4.66495 6 4.66504H12C12.1683 4.66509 12.3339 4.70762 12.4814 4.78869C12.6289 4.86975 12.7535 4.98673 12.8437 5.12879L17.905 13.0825L25.26 4.99254C25.4393 4.79994 25.6873 4.68577 25.9502 4.67478C26.2131 4.6638 26.4697 4.75688 26.6645 4.93386C26.8592 5.11083 26.9764 5.35743 26.9905 5.62019C27.0046 5.88295 26.9146 6.14069 26.74 6.33754L19.0187 14.8313L26.8437 27.1288C26.9396 27.2801 26.993 27.4543 26.9985 27.6333C27.004 27.8122 26.9614 27.9894 26.875 28.1463Z" fill="white"/>
</g>
<defs>
<clipPath id="clip0_1_367">
<rect width="32" height="32" fill="white" transform="translate(0 0.665039)"/>
</clipPath>
</defs>
</svg>
