<svg width="32" height="33" viewBox="0 0 32 33" fill="none" xmlns="http://www.w3.org/2000/svg">
<g clip-path="url(#clip0_1_370)">
<path d="M29.2913 9.20172C29.1735 8.74091 28.9478 8.3147 28.6329 7.95826C28.318 7.60183 27.9228 7.32538 27.48 7.15172C23.195 5.49672 16.375 5.51172 16 5.51172C15.625 5.51172 8.805 5.49672 4.52 7.15172C4.0772 7.32538 3.68204 7.60183 3.36712 7.95826C3.05219 8.3147 2.82653 8.74091 2.70875 9.20172C2.385 10.4492 2 12.7292 2 16.5117C2 20.2942 2.385 22.5742 2.70875 23.8217C2.82636 24.2828 3.05194 24.7092 3.36687 25.0659C3.68181 25.4226 4.07706 25.6992 4.52 25.873C8.625 27.4567 15.05 27.5117 15.9175 27.5117H16.0825C16.95 27.5117 23.3787 27.4567 27.48 25.873C27.9229 25.6992 28.3182 25.4226 28.6331 25.0659C28.9481 24.7092 29.1736 24.2828 29.2913 23.8217C29.615 22.5717 30 20.2942 30 16.5117C30 12.7292 29.615 10.4492 29.2913 9.20172ZM20.0737 17.3267L15.0737 20.8267C14.9242 20.9315 14.7488 20.9933 14.5666 21.0055C14.3844 21.0176 14.2023 20.9797 14.0401 20.8957C13.878 20.8117 13.7419 20.6849 13.6467 20.5291C13.5515 20.3733 13.5007 20.1943 13.5 20.0117V13.0117C13.5001 12.8288 13.5503 12.6494 13.6452 12.493C13.7402 12.3366 13.8762 12.2093 14.0385 12.1249C14.2008 12.0405 14.3831 12.0022 14.5656 12.0142C14.7482 12.0262 14.9239 12.088 15.0737 12.193L20.0737 15.693C20.2053 15.7852 20.3126 15.9078 20.3868 16.0503C20.4609 16.1928 20.4996 16.3511 20.4996 16.5117C20.4996 16.6724 20.4609 16.8306 20.3868 16.9732C20.3126 17.1157 20.2053 17.2382 20.0737 17.3305V17.3267Z" fill="white"/>
</g>
<defs>
<clipPath id="clip0_1_370">
<rect width="32" height="32" fill="white" transform="translate(0 0.511719)"/>
</clipPath>
</defs>
</svg>
