<svg xmlns="http://www.w3.org/2000/svg" width="1920" height="1024" fill="none" viewBox="0 0 1920 1024">
  <g clip-path="url(#a)">
    <path fill="#fff" d="M0 0h1920v1024H0z"/>
    <path fill="#1A6BB7" fill-opacity=".6" d="m228 700 68.585-10.863 3.323 20.979-68.585 10.863z"/>
    <path fill="#1A6BB7" d="m1820 604 38.682 55.244-15.76 11.035-38.682-55.243z"/>
    <path fill="#1A6BB7" fill-opacity=".45" d="m1484 83-14.018 20.02-10.846-7.594 14.018-20.02z"/>
    <path fill="#1A6BB7" fill-opacity=".9" d="m431 883 31.731 6.745-2.337 10.994-31.73-6.745z"/>
    <path fill="#1A6BB7" fill-opacity=".65" d="m577 165 42.124 5.172-2.223 18.104-42.124-5.172z"/>
    <path fill="#1A6BB7" fill-opacity=".6" d="m849 180 18.72-14.107 9.172 12.172-18.72 14.106z"/>
    <path fill="#1A6BB7" fill-opacity=".65" d="m1525 472-69.146-13.44 3.099-15.942 69.146 13.44z"/>
    <path fill="#1A6BB7" fill-opacity=".45" d="m1612 613-74.48-17.195 3.202-13.875 74.481 17.195z"/>
    <path fill="#1A6BB7" fill-opacity=".85" d="m38 747 4.07-23.084 17.963 3.167-4.07 23.084z"/>
    <path fill="#1A6BB7" fill-opacity=".75" d="m290 405-11.653-10.13 10.655-12.256 11.652 10.13z"/>
    <path fill="#1A6BB7" fill-opacity=".85" d="m619 473-16.09-31.577 10.906-5.557 16.09 31.577z"/>
    <path fill="#1A6BB7" d="m1 763 2.493 71.396-15.23.532-2.494-71.396z"/>
    <path fill="#1A6BB7" fill-opacity=".45" d="m735 838 72.893-8.95 2.222 18.104-72.892 8.95z"/>
    <path fill="#1A6BB7" fill-opacity=".35" d="m1801 203-32.373 46.233-10.845-7.594 32.372-46.233zM1518 3l-27.505 20.727-9.172-12.172 27.505-20.726z"/>
    <path fill="#1A6BB7" d="m1072 859 32.145 9.217-4.752 16.572-32.145-9.217z"/>
    <path fill="#1A6BB7" fill-opacity=".9" d="m1908 713 15.047 19.259-15.95 12.461-15.046-19.259z"/>
    <path fill="#1A6BB7" fill-opacity=".45" d="m139 889-9.91 28.782-12.519-4.31 9.91-28.783z"/>
    <circle cx="384.3" cy="899.3" r="12.3" fill="#1A6BB7" fill-opacity=".35"/>
    <circle cx="1874.3" cy="112.3" r="14.3" fill="#1A6BB7" fill-opacity=".75"/>
    <circle cx="1618.3" cy="359.3" r="8.3" fill="#1A6BB7" fill-opacity=".35"/>
    <circle cx="976.3" cy="52.3" r="5.3" fill="#1A6BB7"/>
    <circle cx="284.3" cy="156.3" r="9.3" fill="#1A6BB7" fill-opacity=".9"/>
    <circle cx="1503.8" cy="10.8" r="5.8" fill="#1A6BB7" fill-opacity=".45"/>
    <circle cx="1072.3" cy="97.3" r="14.3" fill="#1A6BB7"/>
    <circle cx="951.3" cy="362.3" r="8.3" fill="#1A6BB7" fill-opacity=".45"/>
    <circle cx="1365.3" cy="749.3" r="12.3" fill="#1A6BB7" fill-opacity=".65"/>
    <circle cx="1294.8" cy="111.8" r="6.8" fill="#1A6BB7" fill-opacity=".45"/>
    <circle cx="464.8" cy="302.8" r="13.8" fill="#1A6BB7" fill-opacity=".65"/>
    <circle cx="705.3" cy="215.3" r="11.3" fill="#1A6BB7" fill-opacity=".6"/>
    <circle cx="1502.8" cy="742.8" r="7.8" fill="#1A6BB7" fill-opacity=".6"/>
    <circle cx="1165.8" cy="83.8" r="8.8" fill="#1A6BB7" fill-opacity=".65"/>
    <circle cx="1766.3" cy="932.3" r="13.3" fill="#1A6BB7"/>
    <circle cx="1857.3" cy="44.3" r="12.3" fill="#1A6BB7"/>
    <circle cx="1194.3" cy="436.3" r="6.3" fill="#1A6BB7" fill-opacity=".75"/>
    <circle cx="938.8" cy="999.8" r="13.8" fill="#1A6BB7" fill-opacity=".85"/>
    <path fill="#1A6BB7" fill-opacity=".6" d="m1409.46 980.107 28.85 12.25-25.03 18.863-3.82-31.113Z"/>
    <path fill="#1A6BB7" fill-opacity=".65" d="m340.227 663.548 17.448-7.769 15.453 11.227-1.997 18.995-17.449 7.769-15.452-11.227 1.997-18.995Z"/>
    <path fill="#1A6BB7" fill-opacity=".75" d="m1552.06 426.344 2.8 11.256-8.34 8.058-11.15-3.198-2.81-11.255 8.35-8.058 11.15 3.197Z"/>
    <path fill="#1A6BB7" fill-opacity=".45" d="m497.45 824.771-.289-16.597 14.229-8.55 14.518 8.048.29 16.597-14.229 8.55-14.519-8.048Zm1003.41-306.759 17.84 6.845 2.98 18.865-14.84 12.02-17.83-6.845-2.99-18.865 14.84-12.02Z"/>
    <path fill="#1A6BB7" d="m443.246 503.032 24.213 10.278-10.278 24.214-24.213-10.278 10.278-24.214Z"/>
    <path fill="#1A6BB7" fill-opacity=".6" d="m1006.44 741.159 11.8 14.065-18.08 3.188 6.28-17.253Z"/>
    <path fill="#1A6BB7" fill-opacity=".85" d="m641.231 837.85-16.789 3.568-8.581-14.864 11.484-12.754 15.68 6.981-1.794 17.069Zm1111.829-547.9-7.7-17.29 14.06-12.665 16.4 9.464-3.94 18.513-18.82 1.978Z"/>
    <path fill="#1A6BB7" fill-opacity=".65" d="m450.582 216.537 21.878 5.051 1.957 22.368-20.669 8.773-14.731-16.946 11.565-19.246Z"/>
    <path fill="#1A6BB7" fill-opacity=".75" d="m285.617 511.513 16.103 3.131-3.13 16.103-16.103-3.13 3.13-16.104Z"/>
    <path fill="#1A6BB7" fill-opacity=".9" d="m1516.98 503.491 18.49 7.47-7.47 18.488-18.49-7.47 7.47-18.488Zm-111.39-391.604 1.35 15.341-14.18 6.017-10.1-11.622 7.93-13.201 15 3.465Z"/>
    <path fill="#1A6BB7" fill-opacity=".6" d="m688.411 270.614-15.54-8.262-.614-17.59 14.925-9.326 15.54 8.262.614 17.59-14.925 9.326ZM426.922 1001.05l-12.319 16.96-8.524-19.147 20.843 2.187Zm286.111-88.186-33.062 1.155 15.531-29.21 17.531 28.055Z"/>
    <path fill="#1A6BB7" fill-opacity=".9" d="m357.226 764.676-.943-27.003 23.857 12.685-22.914 14.318Z"/>
    <path fill="#1A6BB7" d="m1431.4 79.7-20.73-9.229 18.36-13.337 2.37 22.566ZM607.151 539.931l9.637-6.982-6.667-9.858 10.865 4.854 5.204-10.703 1.229 11.837 11.87-.845-9.636 6.983 6.667 9.857-10.866-4.854-5.203 10.703-1.229-11.837-11.871.845Z"/>
    <path fill="#1A6BB7" fill-opacity=".45" d="m1334.59 310.361 4.69-11.201-5.46-10.847 11.2 4.684 10.85-5.454-4.68 11.201 5.45 10.847-11.2-4.684-10.85 5.454Z"/>
    <path fill="#1A6BB7" fill-opacity=".9" d="m741.008 589.901 6.667-9.858-9.636-6.983 11.87.845 1.229-11.836 5.204 10.702 10.865-4.854-6.667 9.858 9.636 6.983-11.87-.846-1.229 11.837-5.203-10.702-10.866 4.854Z"/>
    <path fill="#1A6BB7" d="m673.938 953.498 7.986-9.517-6.583-10.536 11.519 4.654 7.986-9.517-.867 12.394 11.519 4.654-12.054 3.005-.867 12.394-6.584-10.536-12.055 3.005ZM1804.16 88.708l7.68.817 1.07-7.65 3.13 7.06 7.16-2.903-4.55 6.244 6.09 4.749-7.68-.818-1.07 7.651-3.13-7.06-7.16 2.902 4.55-6.243-6.09-4.749Z"/>
    <path fill="#1A6BB7" fill-opacity=".65" d="m1603.26 519.732 5.97-13.612-6.44-13.395 13.61 5.973 13.4-6.445-5.98 13.612 6.45 13.396-13.61-5.974-13.4 6.445Z"/>
    <path fill="#1A6BB7" fill-opacity=".35" d="m1797.35 68.16.61 6.948 6.8 1.569-6.42 2.725.61 6.948-4.58-5.264-6.42 2.726 3.59-5.979-4.57-5.264 6.79 1.57 3.59-5.98Z"/>
    <path fill="#1A6BB7" fill-opacity=".75" d="m416.81 642.683 6.515 12.253 13.666-2.41-9.64 9.982 6.515 12.253-12.473-6.083-9.639 9.982 1.931-13.742-12.473-6.083 13.667-2.41 1.931-13.742Z"/>
    <path fill="#1A6BB7" fill-opacity=".85" d="m841.678 702.043 8.702 5.244 5.524-8.528-.191 10.158 10.148.519-8.893 4.915 4.624 9.047-8.703-5.244-5.523 8.529.19-10.159-10.147-.519 8.893-4.915-4.624-9.047ZM611.126 520.697l-9.427-.837-1.142 9.395-3.989-8.582-8.708 3.709 5.439-7.746-7.566-5.687 9.427.837 1.142-9.396 3.989 8.583 8.708-3.709-5.439 7.746 7.566 5.687Z"/>
    <path fill="#1A6BB7" fill-opacity=".6" d="m1296.46 693.272-4.15-9.764-10.57.925 8.01-6.959-4.15-9.765 9.1 5.464 8-6.96-2.38 10.336 9.09 5.463-10.57.925-2.38 10.335ZM875.752 472.771l6.319 3.807 4.01-6.192-.138 7.376 7.367.377-6.457 3.568 3.358 6.569-6.319-3.808-4.01 6.192.138-7.376-7.367-.376 6.457-3.569-3.358-6.568Z"/>
    <path fill="#1A6BB7" fill-opacity=".45" d="m1086.5 883.343 4.85 9.405 10.3 2.436-9.4 4.855-2.44 10.301-4.85-9.405-10.3-2.436 9.4-4.856 2.44-10.3Z"/>
    <path fill="#1A6BB7" fill-opacity=".6" d="m717.6 396 3.133 8.467 8.467 3.133-8.467 3.133-3.133 8.467-3.133-8.467L706 407.6l8.467-3.133L717.6 396Z"/>
    <path fill="#1A6BB7" fill-opacity=".9" d="m1260.9 545.447 9.46 6.638 6.94-9.235-1.03 11.507 11.47 1.394-10.47 4.869 4.52 10.628-9.45-6.638-6.94 9.235 1.02-11.507-11.47-1.394 10.48-4.869-4.53-10.628Z"/>
    <path fill="#1A6BB7" fill-opacity=".45" d="m267.639 749.334.38-10.502-10.484-.72 9.285-4.921-4.619-9.44 8.905 5.58 5.865-8.719-.38 10.502 10.484.719-9.284 4.922 4.618 9.439-8.905-5.579-5.865 8.719Z"/>
    <path fill="#1A6BB7" fill-opacity=".85" d="m1779.5 829.495-6.86-3.496-5.44 5.446 1.2-7.607-6.86-3.496 7.61-1.205 1.2-7.606 3.5 6.861 7.6-1.204-5.44 5.445 3.49 6.862Z"/>
    <path fill="#1A6BB7" fill-opacity=".6" d="m1904.15 210.848 11.32 6.29 6.65-11.104.21 12.942 12.94.21-11.1 6.653 6.29 11.313-11.32-6.29-6.65 11.104-.21-12.942-12.94-.21 11.1-6.653-6.29-11.313Z"/>
  </g>
  <defs>
    <clipPath id="a">
      <path fill="#fff" d="M0 0h1920v1024H0z"/>
    </clipPath>
  </defs>
</svg>
