<svg width="20" height="20" viewBox="0 0 20 20" fill="none" xmlns="http://www.w3.org/2000/svg">
<path d="M0.857178 5.42855H19.1429M3.14289 0.857117H16.8572C17.4634 0.857117 18.0448 1.09793 18.4734 1.52659C18.9021 1.95524 19.1429 2.53662 19.1429 3.14283V16.8571C19.1429 17.4633 18.9021 18.0447 18.4734 18.4734C18.0448 18.902 17.4634 19.1428 16.8572 19.1428H3.14289C2.53668 19.1428 1.9553 18.902 1.52665 18.4734C1.09799 18.0447 0.857178 17.4633 0.857178 16.8571V3.14283C0.857178 2.53662 1.09799 1.95524 1.52665 1.52659C1.9553 1.09793 2.53668 0.857117 3.14289 0.857117V0.857117Z" stroke="#27272A" stroke-width="1.5" stroke-linecap="round" stroke-linejoin="round"/>
<path d="M10 11.1428C10.6312 11.1428 11.1429 10.6312 11.1429 9.99997C11.1429 9.36879 10.6312 8.85712 10 8.85712C9.36885 8.85712 8.85718 9.36879 8.85718 9.99997C8.85718 10.6312 9.36885 11.1428 10 11.1428Z" fill="#27272A"/>
<path d="M5.4285 11.1428C6.05968 11.1428 6.57136 10.6312 6.57136 9.99997C6.57136 9.36879 6.05968 8.85712 5.4285 8.85712C4.79732 8.85712 4.28564 9.36879 4.28564 9.99997C4.28564 10.6312 4.79732 11.1428 5.4285 11.1428Z" fill="#27272A"/>
<path d="M14.5713 11.1428C15.2025 11.1428 15.7142 10.6312 15.7142 9.99997C15.7142 9.36879 15.2025 8.85712 14.5713 8.85712C13.9401 8.85712 13.4285 9.36879 13.4285 9.99997C13.4285 10.6312 13.9401 11.1428 14.5713 11.1428Z" fill="#27272A"/>
<path d="M10 15.7142C10.6312 15.7142 11.1429 15.2026 11.1429 14.5714C11.1429 13.9402 10.6312 13.4285 10 13.4285C9.36885 13.4285 8.85718 13.9402 8.85718 14.5714C8.85718 15.2026 9.36885 15.7142 10 15.7142Z" fill="#27272A"/>
<path d="M5.4285 15.7142C6.05968 15.7142 6.57136 15.2026 6.57136 14.5714C6.57136 13.9402 6.05968 13.4285 5.4285 13.4285C4.79732 13.4285 4.28564 13.9402 4.28564 14.5714C4.28564 15.2026 4.79732 15.7142 5.4285 15.7142Z" fill="#27272A"/>
<path d="M14.5713 15.7142C15.2025 15.7142 15.7142 15.2026 15.7142 14.5714C15.7142 13.9402 15.2025 13.4285 14.5713 13.4285C13.9401 13.4285 13.4285 13.9402 13.4285 14.5714C13.4285 15.2026 13.9401 15.7142 14.5713 15.7142Z" fill="#27272A"/>
</svg>
